<svg xmlns="http://www.w3.org/2000/svg" width="50.741" height="46.843" viewBox="0 0 50.741 46.843">
  <defs>
    <style>
      .cls-1 {
        fill: #ffc950;
      }

      .cls-2 {
        fill: #9c8e61;
      }

      .cls-3 {
        fill: #fff;
      }

      .cls-3, .cls-6 {
        opacity: 0.3;
      }

      .cls-4 {
        fill: #f29722;
      }

      .cls-5 {
        opacity: 0.1;
      }

      .cls-6 {
        fill: #d7a56a;
      }
    </style>
  </defs>
  <g id="Group_176" data-name="Group 176" transform="translate(-178.327 -3146.023)">
    <g id="Component_13_1" data-name="Component 13 – 1" transform="translate(178.327 3146.023)">
      <path id="Path_2075" data-name="Path 2075" class="cls-1" d="M767.5,364.227c2.336-.544,5.227.836,6.768,1.723a4.912,4.912,0,0,0,.343-.84c-3.724-2.756-6.071-2.19-7.009-1.763h0Z" transform="translate(-751.314 -342.62)"/>
      <path id="Path_2076" data-name="Path 2076" class="cls-2" d="M834.37,362.081h0c-.153.318-.321.628-.5.924C833.87,363,834.6,361.609,834.37,362.081Z" transform="translate(-793.456 -341.981)"/>
      <path id="Path_2083" data-name="Path 2083" class="cls-1" d="M796.5,364.227c2.336-.544,5.227.836,6.768,1.723a4.914,4.914,0,0,0,.343-.84c-3.724-2.756-6.071-2.19-7.009-1.763h0Z" transform="translate(-769.728 -342.62)"/>
      <path id="Path_2091" data-name="Path 2091" class="cls-3" d="M753.467,362.849c.789-1.825,3.128-3.059,4.472-3.65a4.059,4.059,0,0,0-.391-.639c-3.65,1.117-4.45,2.942-4.618,3.782h0Z" transform="translate(-742.063 -339.808)"/>
      <path id="Path_2096" data-name="Path 2096" class="cls-4" d="M755.968,347.827a20.324,20.324,0,1,1,20.807-20.318A20.6,20.6,0,0,1,755.968,347.827Zm0-39.1A18.775,18.775,0,1,0,774.585,327.5,18.717,18.717,0,0,0,755.968,308.73Z" transform="translate(-730.779 -307.19)"/>
      <path id="Path_2097" data-name="Path 2097" class="cls-4" d="M647.665,305.44l-3.274,15.273-1.307,6.089-.894,4.191H610.8l-1.435-6.68-1.409-6.582L605.32,305.44Z" transform="translate(-601.305 -284.151)"/>
      <path id="Path_2098" data-name="Path 2098" class="cls-5" d="M607.121,312.817c10.059,0,40.009-.01,40.009-.01l.8-4.367H606.32l.566,3.3" transform="translate(-601.94 -286.055)"/>
      <rect id="Rectangle_24" data-name="Rectangle 24" class="cls-4" width="50.741" height="6.206" transform="translate(0 19.464)"/>
      <path id="Path_2099" data-name="Path 2099" class="cls-6" d="M777.815,398.936l-1.3,6.078c-8.334.172-18.592-.128-22.071-2.38-3.209-2.077-7.885-1.321-11.652-.11l-1.409-6.571c4.461-1.624,11.846-3.41,15.982.486C760.873,399.743,770.222,399.9,777.815,398.936Z" transform="translate(-734.729 -362.374)"/>
    </g>
  </g>
</svg>
