<svg id="Lag_1" data-name="Lag 1" xmlns="http://www.w3.org/2000/svg" viewBox="0 0 730 369.6"><defs><style>.cls-1{fill:#9c8e60;}.cls-2{fill:#f29822;}.cls-3{fill:#202020;}</style></defs><path class="cls-1" d="M663.17,214.31c19.6-15.63,34.36-34.84,46.4-56.84a155.36,155.36,0,0,0-44.75,22.75,73.64,73.64,0,0,0,5.07-46.8c-.54-2.37-2-5.3-4.41-4.89-2.13.36-2.81,3-3,5.16L659,166a101.51,101.51,0,0,0-64.28-53.14c13.44,16.69,31.41,42.11,45.8,58-12.51-7.28-30.88-20.51-45.35-21,7.75,11.34,20.84,17.64,31,26.9,9.71,8.86,17.36,22.65,20.57,35.39Z" transform="translate(-55.94 -112.84)"/><path class="cls-2" d="M654,212.59c14.29,1,27.32,9.49,33.4,22.34s4.8,28.21-.29,41.48c-3.78,9.86-9.62,19.28-10.1,29.82-.37,8.17,2.53,16.07,4.72,23.94,6.29,22.63,6.7,47.54-2.8,69-3.13,7.07-7.28,13.7-9.86,21-6.75,19-2.58,41.65-13.63,58.54-1.08,1.64-2.47,3.32-4.41,3.65-4,.66-6.23-4.38-6.95-8.36a297.52,297.52,0,0,1-3-85.82c.81-7.25,1.87-14.68.19-21.78-2.52-10.68-10.86-19.09-14.47-29.46-6.53-18.75,3.48-39.18,2.29-59-.57-9.31-3.6-18.28-5.23-27.46s-1.71-19.22,3.16-27.18c6.84-11.18,16.1-12.08,27-10.73" transform="translate(-55.94 -112.84)"/><path class="cls-3" d="M67.39,422.68S61.27,378.21,60,337.6s-8.57-79.29,0-90.9,13.47-11.6,38-15.47,27.3-3.93,31,4.74c6.19,14.53,10,36.47,0,41-9.48,4.3-6.24,2.95-17.1,4.54a210.23,210.23,0,0,1-22.69,1.87c-2,.05-3.6,2.34-3.89,5.4-.86,9.19-1.79,19.16,5.35,15.94,8.57-3.87,18.35-11.1,19.8-.06,1.65,12.57,4.9,19.89-4.28,22.45-12.74,3.55-17.58-.5-18.92,6.57s-.86,55.08,3.62,74.87S68.74,433.8,67.39,422.68Z" transform="translate(-55.94 -112.84)"/><path class="cls-3" d="M190,247.26c-4.25-16.6-6-18.53-11.13-18.53-6,0-23.9,2.44-25.78,20-2.23,20.83-17.92,171.83-17.92,171.83.85,11.25,12.32,7.29,16,6.43,5.93-1.4,10.27,1.38,12.5-11.6,1.31-7.6,2-28,2-34.2s1.11-11.56,3.79-14.56c4.47-5,14.14-5.85,16.67.82,3.42,9,4.3,26.83,8.72,40.44,2.4,7.39,3.27,17.37,9.62,16.45,9.56-1.38,14.55-2.14,17.44-10C227.39,399.47,196.33,272.09,190,247.26Zm-11.69,59.66c-3.35,1.69-8.95,2.26-10.06-2.27s-.49-10.25,1-15.91c0,0,1.75-7.79,3.47-8.41,4.84-1.75,5.59,9.05,7.09,14.14S181.64,305.22,178.28,306.92Z" transform="translate(-55.94 -112.84)"/><path class="cls-3" d="M284.67,362.28c-3.56-8.33-12.7-31-15.5-38s.77-8.2,8.9-9.73,17.27-6,21.33-12.86,7.92-25.23,4.07-40.14c-5.63-21.81-27.07-31.32-42.17-32.56-9.19-.76-20.32,0-23.88,3.79s-1.91,49.49-.51,68c.79,10.38,5.08,119,5.08,119,.58,12.32,9.76,8.35,18,6,6.52-1.84-4.78-47.87-1.19-58,4.87-13.72,22.83,40.92,26.34,52,2.71,8.53,14.53,10.39,22.76,5.14C315,420.48,288.23,370.61,284.67,362.28Zm-29.11-82.79c.21-4.06,0-16,0-16-.45-13.83,11-4.54,13.67-.4,4.78,7.34,5.44,10.2,3.91,17S255.11,288.29,255.56,279.49Z" transform="translate(-55.94 -112.84)"/><path class="cls-3" d="M448.91,422.68s-6.13-44.47-7.35-85.08-8.57-79.29,0-90.9,13.47-11.6,38-15.47,27.29-3.93,31,4.74c6.18,14.53,10,36.47,0,41-9.49,4.3-6.24,2.95-17.11,4.54a209.89,209.89,0,0,1-22.68,1.87c-2,.05-3.6,2.34-3.89,5.4-.86,9.19-1.79,19.16,5.35,15.94,8.57-3.87,18.35-11.1,19.8-.06,1.64,12.57,4.9,19.89-4.29,22.45-12.73,3.55-17.57-.5-18.91,6.57s-.86,55.08,3.62,74.87S450.26,433.8,448.91,422.68Z" transform="translate(-55.94 -112.84)"/><path class="cls-3" d="M571.49,247.26c-4.25-16.6-6-18.53-11.13-18.53-6,0-23.91,2.44-25.78,20-2.23,20.83-17.92,171.83-17.92,171.83.85,11.25,12.31,7.29,16,6.43,5.93-1.4,10.26,1.38,12.5-11.6,1.3-7.6,2-28,2-34.2s1.11-11.56,3.79-14.56c4.46-5,14.14-5.85,16.67.82,3.42,9,4.3,26.83,8.71,40.44,2.4,7.39,3.28,17.37,9.63,16.45,9.56-1.38,14.55-2.14,17.44-10C608.91,399.47,577.85,272.09,571.49,247.26ZM559.8,306.92c-3.36,1.69-8.95,2.26-10.07-2.27s-.48-10.25,1-15.91c0,0,1.75-7.79,3.47-8.41,4.84-1.75,5.59,9.05,7.08,14.14S563.16,305.22,559.8,306.92Z" transform="translate(-55.94 -112.84)"/><path class="cls-3" d="M761.5,362.28c-3.55-8.33-12.7-31-15.5-38s.77-8.2,8.9-9.73,17.27-6,21.34-12.86,7.91-25.23,4.06-40.14c-5.63-21.81-27.07-31.32-42.17-32.56-9.19-.76-20.32,0-23.88,3.79s-1.9,49.49-.51,68c.79,10.38,5.09,119,5.09,119,.57,12.32,9.75,8.35,18,6,6.52-1.84-4.77-47.87-1.19-58,4.87-13.72,22.83,40.92,26.34,52,2.71,8.53,14.54,10.39,22.76,5.14C791.81,420.48,765.06,370.61,761.5,362.28Zm-29.11-82.79c.21-4.06,0-16,0-16-.45-13.83,11-4.54,13.67-.4,4.79,7.34,5.44,10.2,3.91,17S731.94,288.29,732.39,279.49Z" transform="translate(-55.94 -112.84)"/><path class="cls-3" d="M324.83,421.57s-3.51-30.84-4.09-54.89-1.55-77.15,1-97.23c2.61-20.28,6.3-31.84,11.55-36.9s12.23-6,16,2.25c3.43,7.47,4.85,14.65,7.19,27.13s8.24,52.26,14.11,51.44c5.38-.75,8.49-39.58,9.07-43.92s5.08-32.08,7-36.43c2.75-6.19,11.73-7,15.82-1.4s8.7,24.4,10.46,35.09,9.28,60.19,10.45,83.35,8.8,68.78,1.31,75.29c-4.28,3.72-15.58,3.36-18.56.82-6.46-5.48-10.13-29.2-13.05-35.44s-6.43-6.23-8.18,0-2.54,27.4-5.84,31.09c-3.78,4.21-6.31,6-12.67,3.53-7.68-3-5.23-22.65-8.89-31.42-2-4.81-5.23-4.59-7.32,1.2-2.54,7-.78,12.36-5,26.69C342.06,432.92,325.7,427.87,324.83,421.57Z" transform="translate(-55.94 -112.84)"/></svg>